<svg height="512" viewBox="0 0 64 64" width="512" xmlns="http://www.w3.org/2000/svg"><g id="Drug-Medicine-Medical-Health_care-Capsula-Bottle" data-name="Drug-Medicine-Medical-Health care-Capsula-Bottle"><path d="m21.71 47.39a7 7 0 0 0 9.9 9.9l5.65-5.65-9.9-9.9z"/><path d="m5 10h30a1 1 0 0 0 1-1v-4a1 1 0 0 0 -1-1h-30a1 1 0 0 0 -1 1v4a1 1 0 0 0 1 1zm26-4a1 1 0 0 1 2 0v2a1 1 0 0 1 -2 0zm-4 0a1 1 0 0 1 2 0v2a1 1 0 0 1 -2 0zm-4 0a1 1 0 0 1 2 0v2a1 1 0 0 1 -2 0zm-4 0a1 1 0 0 1 2 0v2a1 1 0 0 1 -2 0zm-4 0a1 1 0 0 1 2 0v2a1 1 0 0 1 -2 0zm-4 0a1 1 0 0 1 2 0v2a1 1 0 0 1 -2 0zm-4 0a1 1 0 0 1 2 0v2a1 1 0 0 1 -2 0z"/><path d="m44.33 34.67a7 7 0 0 0 -9.9 0l-5.65 5.65 9.9 9.9 5.65-5.65a7.007 7.007 0 0 0 0-9.9z"/><path d="m20.29 45.98 12.73-12.73a9.156 9.156 0 0 1 2.98-1.97v-9.28h-18a1 1 0 0 1 0-2h18v-2a2.006 2.006 0 0 0 -2-2h-28a2.006 2.006 0 0 0 -2 2v33h13.76a9.014 9.014 0 0 1 2.53-5.02zm-6.58-6.27a1.014 1.014 0 0 1 -1.42 0 1.008 1.008 0 0 1 0-1.42l3.3-3.29-5.3-5.29a1 1 0 0 1 -.21-1.09.987.987 0 0 1 .92-.62 3 3 0 0 0 0-6h-3v11a1 1 0 0 1 -2 0v-12a1 1 0 0 1 1-1h4a5 5 0 0 1 2 9.58l4 4.01 3.29-3.3a1 1 0 0 1 1.42 1.42l-3.3 3.29 3.3 3.29a1.008 1.008 0 0 1 0 1.42 1.014 1.014 0 0 1 -1.42 0l-3.29-3.3z"/><path d="m17.69 53h-13.69v5a2.006 2.006 0 0 0 2 2h15.93a9.493 9.493 0 0 1 -1.64-1.29 8.978 8.978 0 0 1 -2.6-5.71z"/><path d="m44 52a8.011 8.011 0 0 0 8 8 7.924 7.924 0 0 0 4.9-1.69l-11.21-11.21a7.924 7.924 0 0 0 -1.69 4.9z"/><path d="m9 12h22v2h-22z"/><path d="m52 44a7.924 7.924 0 0 0 -4.9 1.69l11.21 11.21a7.924 7.924 0 0 0 1.69-4.9 8.011 8.011 0 0 0 -8-8z"/></g></svg>