<svg clip-rule="evenodd" fill-rule="evenodd" height="512" image-rendering="optimizeQuality" shape-rendering="geometricPrecision" text-rendering="geometricPrecision" viewBox="0 0 43.3492 43.3492" width="512" xmlns="http://www.w3.org/2000/svg"><g id="Layer_x0020_1"><g id="_218334152"><path id="_218334296" d="m13.802 8.8693c-2.9097 2.1313-8.486 8.3738-12.1458 12.2991.1511-.0417.305-.082.4623-.1222.9456-.2417 1.9267-.3941 2.897-.494.3661-.0377.7507-.0688 1.1494-.0926l9.0656-9.0656c2.9722-2.9722 2.1695-1.3835 4.8415-1.9709 1.9458-.4277 2.7614-1.5441 2.3937-3.3491-2.9612.0413-6.245 1.0236-8.6637 2.7953z"/><path id="_218333960" d="m25.6557 15.7286 8.1591 4.7107c.5595-.0272 1.0992-.0384 1.608-.0367 1.4431.0047 2.979.1013 4.4426.3541-4.4824-2.8284-10.4572-6.6614-13.4834-7.8366-2.7948-1.0853-6.221-1.1842-9.092-.4577.1121 1.8387 1.1888 2.706 3.179 2.6155 2.733-.1242 1.5464-1.451 5.1867.6507z"/><path id="_218334416" d="m17.0892 25.79c1.0792.75 1.2523 2.1251.8717 3.3061-1.0612 3.2947-2.8893 5.9941-6.6658 6.0748-2.1324.0453-3.5524-.3535-4.5839-1.1779-2.0821-1.6642-5.4748-8.8214-1.0677-10.1458 3.7863-1.1378 8.1878-.3215 11.4457 1.9428zm-17.0892-2.8743v2.469c2.7594 1.4718-.6379 10.5908 9.8708 11.7998 3.4175.3936 6.0273-.4944 7.8293-2.6642l2.7991-3.8659c.5791-.7997 1.7723-.7996 2.3513.0001l2.7986 3.8658c1.802 2.1698 4.4118 3.0578 7.8293 2.6642 10.5087-1.209 7.1114-10.328 9.8708-11.7998v-2.469c-.1493-.0889-.3046-.1824-.4657-.28-.5982-.316-1.2083-.4816-1.8914-.6562-1.5051-.3849-3.4786-.6068-5.5724-.6136-4.1326-.0135-8.7336.8113-11.1268 2.8764-.9202.7939-1.7929 1.2069-2.6183 1.2388-.8254-.0319-1.6981-.4449-2.6183-1.2388-2.9586-2.553-9.2917-3.2104-13.9422-2.7319-1.0171.1047-1.9537.2637-2.757.4691-.8609.2201-1.6058.4259-2.3571.9362zm25.3882 6.1804c-.3805-1.181-.2075-2.5561.8717-3.3061 3.2579-2.2643 7.6595-3.0806 11.4457-1.9428 4.4071 1.3244 1.0145 8.4816-1.0677 10.1458-1.0314.8244-2.4514 1.2232-4.5838 1.1779-3.7766-.0807-5.6046-2.7801-6.6659-6.0748z"/></g></g></svg>